<?xml version="1.0" encoding="UTF-8" standalone="no"?>
<svg
   xmlns:dc="http://purl.org/dc/elements/1.1/"
   xmlns:cc="http://creativecommons.org/ns#"
   xmlns:rdf="http://www.w3.org/1999/02/22-rdf-syntax-ns#"
   xmlns:svg="http://www.w3.org/2000/svg"
   xmlns="http://www.w3.org/2000/svg"
   xmlns:sodipodi="http://sodipodi.sourceforge.net/DTD/sodipodi-0.dtd"
   xmlns:inkscape="http://www.inkscape.org/namespaces/inkscape"
   data-name="Layer 1"
   id="Layer_1"
   viewBox="0 0 128 128"
   version="1.1"
   sodipodi:docname="instagram.svg"
   inkscape:version="1.0.1 (3bc2e813f5, 2020-09-07)">
  <metadata
     id="metadata936">
    <rdf:RDF>
      <cc:Work
         rdf:about="">
        <dc:format>image/svg+xml</dc:format>
        <dc:type
           rdf:resource="http://purl.org/dc/dcmitype/StillImage" />
      </cc:Work>
    </rdf:RDF>
  </metadata>
  <sodipodi:namedview
     pagecolor="#ffffff"
     bordercolor="#666666"
     borderopacity="1"
     objecttolerance="10"
     gridtolerance="10"
     guidetolerance="10"
     inkscape:pageopacity="0"
     inkscape:pageshadow="2"
     inkscape:window-width="1366"
     inkscape:window-height="705"
     id="namedview934"
     showgrid="false"
     inkscape:zoom="2.1015625"
     inkscape:cx="22.079359"
     inkscape:cy="76.015265"
     inkscape:window-x="-8"
     inkscape:window-y="-8"
     inkscape:window-maximized="1"
     inkscape:current-layer="Layer_1" />
  <defs
     id="defs923">
    <style
       id="style921">.cls-1{fill:#f0f0f0;}</style>
  </defs>
  <title
     id="title925" />
  <g
     id="g951"
     transform="matrix(1.2427737,0,0,1.2427737,-15.537516,-15.537516)">
    <path
       class="cls-1"
       d="m 83,23 a 22,22 0 0 1 22,22 V 83 A 22,22 0 0 1 83,105 H 45 A 22,22 0 0 1 23,83 V 45 A 22,22 0 0 1 45,23 h 38 m 0,-8 H 45 A 30.09,30.09 0 0 0 15,45 v 38 a 30.09,30.09 0 0 0 30,30 H 83 A 30.09,30.09 0 0 0 113,83 V 45 A 30.09,30.09 0 0 0 83,15 Z"
       id="path927" />
    <path
       class="cls-1"
       d="M 90.14,32 A 5.73,5.73 0 1 0 95.87,37.73 5.73,5.73 0 0 0 90.14,32 Z"
       id="path929" />
    <path
       class="cls-1"
       d="M 64.27,46.47 A 17.68,17.68 0 1 1 46.6,64.14 17.7,17.7 0 0 1 64.27,46.47 m 0,-8 A 25.68,25.68 0 1 0 90,64.14 25.68,25.68 0 0 0 64.27,38.47 Z"
       id="path931" />
  </g>
</svg>
