<?xml version="1.0" encoding="UTF-8" standalone="no"?>
<svg
   xmlns:dc="http://purl.org/dc/elements/1.1/"
   xmlns:cc="http://creativecommons.org/ns#"
   xmlns:rdf="http://www.w3.org/1999/02/22-rdf-syntax-ns#"
   xmlns:svg="http://www.w3.org/2000/svg"
   xmlns="http://www.w3.org/2000/svg"
   xmlns:sodipodi="http://sodipodi.sourceforge.net/DTD/sodipodi-0.dtd"
   xmlns:inkscape="http://www.inkscape.org/namespaces/inkscape"
   data-name="Layer 1"
   id="Layer_1"
   viewBox="0 0 128 128"
   version="1.1"
   sodipodi:docname="web.svg"
   inkscape:version="1.0.1 (3bc2e813f5, 2020-09-07)">
  <metadata
     id="metadata989">
    <rdf:RDF>
      <cc:Work
         rdf:about="">
        <dc:format>image/svg+xml</dc:format>
        <dc:type
           rdf:resource="http://purl.org/dc/dcmitype/StillImage" />
      </cc:Work>
    </rdf:RDF>
  </metadata>
  <sodipodi:namedview
     pagecolor="#ffffff"
     bordercolor="#666666"
     borderopacity="1"
     objecttolerance="10"
     gridtolerance="10"
     guidetolerance="10"
     inkscape:pageopacity="0"
     inkscape:pageshadow="2"
     inkscape:window-width="1366"
     inkscape:window-height="705"
     id="namedview987"
     showgrid="false"
     inkscape:zoom="4.203125"
     inkscape:cx="64"
     inkscape:cy="64"
     inkscape:window-x="-8"
     inkscape:window-y="-8"
     inkscape:window-maximized="1"
     inkscape:current-layer="Layer_1" />
  <defs
     id="defs974">
    <style
       id="style972">.cls-1{fill:#f0f0f0;}.cls-2{fill:none;stroke:#f0f0f0;stroke-miterlimit:10;stroke-width:6.5px;}</style>
  </defs>
  <title
     id="title976" />
  <g
     id="g995">
    <path
       class="cls-1"
       d="M64,16A47.5,47.5,0,1,1,16.5,63.5,47.55,47.55,0,0,1,64,16m0-6.5a54,54,0,1,0,54,54,54,54,0,0,0-54-54Z"
       id="path978" />
    <path
       class="cls-1"
       d="M65.08,16c2.09,0,5.78,3.66,8.93,11.69,3.71,9.46,5.75,22.18,5.75,35.81s-2,26.35-5.75,35.81c-3.15,8-6.83,11.69-8.93,11.69s-5.78-3.66-8.93-11.69C52.45,89.85,50.4,77.13,50.4,63.5s2-26.35,5.75-35.81C59.31,19.65,63,16,65.08,16m0-6.5c-11.7,0-21.18,24.18-21.18,54s9.48,54,21.18,54,21.18-24.18,21.18-54-9.48-54-21.18-54Z"
       id="path980" />
    <line
       class="cls-2"
       x1="17.66"
       x2="112.5"
       y1="80.37"
       y2="80.37"
       id="line982" />
    <line
       class="cls-2"
       x1="17.66"
       x2="112.5"
       y1="46.62"
       y2="46.62"
       id="line984" />
  </g>
</svg>
